HIERARCHY
ROOT Hips
{
	OFFSET 0 0 0
	CHANNELS 6 Xposition Yposition Zposition Yrotation Xrotation Zrotation
	JOINT Spine
	{
		OFFSET -0 8.2975 -2.64483
		CHANNELS 3 Yrotation Xrotation Zrotation
		JOINT Spine1
		{
			OFFSET -0 9.08023 0
			CHANNELS 3 Yrotation Xrotation Zrotation
			JOINT Spine2
			{
				OFFSET -0 9.08023 0
				CHANNELS 3 Yrotation Xrotation Zrotation
				JOINT Spine3
				{
					OFFSET -0 9.08023 0
					CHANNELS 3 Yrotation Xrotation Zrotation
					JOINT Neck
					{
						OFFSET -0 14.3448 3.64483
						CHANNELS 3 Yrotation Xrotation Zrotation
						JOINT Head
						{
							OFFSET -0 10.3719 0
							CHANNELS 3 Yrotation Xrotation Zrotation
							End Site
							{
								OFFSET 0 15 0
							}
						}
					}
					JOINT LeftShoulder
					{
						OFFSET 1.72865 2.06938 3.45729
						CHANNELS 3 Yrotation Xrotation Zrotation
						JOINT LeftArm
						{
							OFFSET 20.087 0 0
							CHANNELS 3 Yrotation Xrotation Zrotation
							JOINT LeftForeArm
							{
								OFFSET 21.3119 0 0
								CHANNELS 3 Yrotation Xrotation Zrotation
								JOINT LeftHand
								{
									OFFSET 23.4377 0 0
									CHANNELS 3 Yrotation Xrotation Zrotation
									End Site
									{
										OFFSET 15 0 0
									}
								}
							}
						}
					}
					JOINT RightShoulder
					{
						OFFSET -1.72865 2.06938 3.45729
						CHANNELS 3 Yrotation Xrotation Zrotation
						JOINT RightArm
						{
							OFFSET -20.087 0 0
							CHANNELS 3 Yrotation Xrotation Zrotation
							JOINT RightForeArm
							{
								OFFSET -21.3119 0 0
								CHANNELS 3 Yrotation Xrotation Zrotation
								JOINT RightHand
								{
									OFFSET -23.4377 0 0
									CHANNELS 3 Yrotation Xrotation Zrotation
									End Site
									{
										OFFSET -15 0 0
									}
								}
							}
						}
					}
				}
			}
		}
	}
	JOINT LeftUpLeg
	{
		OFFSET 10.3719 -3.45729 2
		CHANNELS 3 Yrotation Xrotation Zrotation
		JOINT LeftLeg
		{
			OFFSET -0 -37.3125 2.4201
			CHANNELS 3 Yrotation Xrotation Zrotation
			JOINT LeftFoot
			{
				OFFSET -0 -42.7104 -2.4201
				CHANNELS 3 Yrotation Xrotation Zrotation
				JOINT LeftToeBase
				{
					OFFSET -0 -6.6743 15.5578
					CHANNELS 3 Yrotation Xrotation Zrotation
					End Site
					{
						OFFSET 0 0 5
					}
				}
			}
		}
	}
	JOINT RightUpLeg
	{
		OFFSET -10.3719 -3.45729 2
		CHANNELS 3 Yrotation Xrotation Zrotation
		JOINT RightLeg
		{
			OFFSET -0 -37.3125 2.4201
			CHANNELS 3 Yrotation Xrotation Zrotation
			JOINT RightFoot
			{
				OFFSET -0 -42.7104 -2.4201
				CHANNELS 3 Yrotation Xrotation Zrotation
				JOINT RightToeBase
				{
					OFFSET -0 -6.6743 15.5578
					CHANNELS 3 Yrotation Xrotation Zrotation
					End Site
					{
						OFFSET 0 0 5
					}
				}
			}
		}
	}
}
MOTION
Frames: 17
Frame Time: 0.00833333
176.540002 93.050751 283.070630 -3.903195 -0.263517 -0.038308 0.177235 -0.079983 0.050825 0.266465 0.276912 -0.014152 0.650325 0.493034 -0.019095 0.768654 0.688884 0.189259 -9.041854 0.881943 0.856275 -4.056410 6.636174 -1.712929 15.132802 14.439473 -2.812092 -65.842917 -8.020491 -63.715350 -10.918555 2.177844 12.224908 19.476749 -9.047753 3.728736 -7.073327 6.856021 6.485880 58.642425 3.999284 51.671346 85.145585 9.433191 -22.858929 -35.636530 -23.186411 -12.721998 10.083641 2.831433 1.382177 0.000000 0.223194 0.000000 9.887487 -1.066647 -2.792704 0.000000 -3.537214 0.000000 -9.159661 3.413511 0.622607 0.000000 -1.380058 0.000000 -14.179716 0.514999 -0.629018 0.000000 -4.074789 0.000000
176.564307 93.045551 283.045850 -4.180653 -0.278306 -0.055483 0.220509 -0.048935 0.039290 0.327076 0.205512 0.045737 0.736030 0.404034 0.054391 0.866885 0.711859 0.145532 -9.084655 0.930454 0.957479 -4.092349 6.720348 -1.829939 15.003071 14.400048 -2.852472 -65.824858 -7.981606 -63.843842 -10.605021 2.147334 12.197842 19.480048 -9.203057 3.718620 -6.584034 6.591726 7.138864 58.851190 3.397426 50.006128 82.572037 8.573652 -22.612716 -35.170262 -24.392796 -11.535836 10.224958 2.861200 1.393466 0.000000 0.234903 0.000000 10.021435 -1.126795 -2.793778 0.000000 -3.508717 0.000000 -9.184647 3.399327 0.619260 0.000000 -1.408088 0.000000 -13.880017 0.562289 -0.581263 0.000000 -4.072264 0.000000
176.587732 93.044604 283.026636 -4.455393 -0.310798 -0.083248 0.279123 -0.039885 0.066859 0.398464 0.185411 0.076942 0.811050 0.397125 0.082881 0.932150 0.710105 0.233068 -9.099137 0.735712 0.946432 -4.104209 7.053714 -1.839441 14.900993 14.358720 -2.998832 -65.841728 -7.912375 -63.937036 -10.343253 2.115388 12.169677 19.525006 -9.358476 3.796156 -6.044716 6.262774 7.637441 58.920831 2.679864 48.467336 80.122560 7.546851 -22.063685 -34.601899 -25.609425 -10.754578 10.370004 2.902334 1.418723 0.000000 0.259486 0.000000 10.157375 -1.166612 -2.815150 0.000000 -3.482370 0.000000 -9.122219 3.410440 0.629109 0.000000 -1.448287 0.000000 -13.660944 0.628408 -0.563722 0.000000 -4.116398 0.000000
176.616406 93.042175 282.997266 -4.777815 -0.328081 -0.109982 0.356823 -0.066951 0.114656 0.475545 0.202365 0.082600 0.874098 0.398473 0.119182 1.006978 0.666145 0.264802 -9.094503 0.723759 0.987813 -4.105799 7.115141 -1.829741 14.824189 14.295408 -3.061304 -65.865344 -7.859133 -64.089302 -10.079769 1.995166 12.251376 19.643802 -9.494147 3.680559 -5.257763 5.562260 8.241512 59.069371 2.649934 47.223077 77.956211 6.231210 -21.717586 -34.455288 -26.420985 -10.923672 10.551373 2.936882 1.441638 0.000000 0.271741 0.000000 10.288083 -1.227549 -2.844188 0.000000 -3.485706 0.000000 -8.984970 3.373415 0.642529 0.000000 -1.449869 0.000000 -13.476812 0.692627 -0.577296 0.000000 -4.154746 0.000000
176.644751 93.039484 282.971631 -5.027810 -0.345273 -0.135367 0.397203 -0.055914 0.099985 0.523998 0.179927 0.159428 0.971649 0.446380 0.182117 1.125035 0.580637 0.309465 -9.139654 0.626393 0.947127 -4.125578 7.324451 -1.813852 14.680376 14.251598 -3.191133 -65.885973 -7.763309 -64.176401 -9.925564 1.799112 12.255241 19.804454 -9.417347 3.672279 -4.463461 4.693356 8.756882 58.804611 2.616108 46.223429 75.654462 5.786284 -21.117318 -34.382448 -27.639887 -10.670442 10.704881 2.955779 1.456528 0.000000 0.289260 0.000000 10.395364 -1.262723 -2.826546 0.000000 -3.516703 0.000000 -8.912286 3.349991 0.653758 0.000000 -1.464702 0.000000 -13.294722 0.742268 -0.579601 0.000000 -4.158456 0.000000
176.668103 93.037897 282.963892 -5.258318 -0.401131 -0.166348 0.450074 -0.079610 0.179229 0.597857 0.213767 0.176216 1.084375 0.421991 0.175248 1.236321 0.587294 0.393256 -9.243131 0.568518 0.924378 -4.172641 7.457108 -1.832486 14.496444 14.181525 -3.319919 -66.029304 -7.625287 -64.213218 -9.678591 1.717684 12.222623 19.833105 -9.539564 3.568125 -3.933299 4.192965 9.266652 58.840195 2.092828 44.826082 72.936607 5.459685 -20.127397 -34.387043 -29.023889 -11.349131 10.882122 3.028967 1.491967 0.000000 0.304341 0.000000 10.445972 -1.306418 -2.834212 0.000000 -3.507600 0.000000 -8.870591 3.402695 0.663706 0.000000 -1.515155 0.000000 -13.093805 0.824801 -0.605750 0.000000 -4.202918 0.000000
176.697559 93.034143 282.940356 -5.521983 -0.438908 -0.192031 0.514354 -0.044890 0.260029 0.676591 0.180966 0.194156 1.225138 0.395368 0.162509 1.360509 0.552769 0.510991 -9.430688 0.506863 0.794454 -4.244587 7.603670 -1.791635 14.296809 14.199940 -3.463219 -66.154600 -7.536677 -64.185795 -9.441974 1.621469 12.153914 19.964098 -9.876676 3.450668 -3.380862 3.552943 9.783964 58.892039 1.993407 43.594690 70.379674 4.909600 -19.334884 -34.171888 -29.342175 -12.251376 11.042638 3.080634 1.512654 0.000000 0.304816 0.000000 10.560844 -1.345219 -2.853546 0.000000 -3.526988 0.000000 -8.663799 3.388189 0.675978 0.000000 -1.509914 0.000000 -13.015829 0.866293 -0.584889 0.000000 -4.135157 0.000000
176.741357 93.032141 282.914624 -5.791793 -0.464038 -0.199587 0.615273 -0.030502 0.388828 0.780362 0.157361 0.199447 1.285253 0.371827 0.085425 1.427229 0.535208 0.467569 -9.554205 0.386153 0.949843 -4.320086 7.852528 -1.882021 14.220629 14.138213 -3.440011 -66.188860 -7.490960 -64.175379 -9.261838 1.436057 12.086785 20.028879 -9.892592 3.423039 -2.553316 2.731980 10.388523 58.828593 2.053506 42.718288 68.008698 4.574000 -18.699023 -34.406234 -29.789604 -13.235233 11.232230 3.117419 1.502858 0.000000 0.314790 0.000000 10.646414 -1.382966 -2.833826 0.000000 -3.502571 0.000000 -8.410381 3.339581 0.668243 0.000000 -1.485168 0.000000 -12.997542 0.924370 -0.607487 0.000000 -4.156812 0.000000
176.774365 93.031030 282.892212 -5.983995 -0.482993 -0.217974 0.669900 -0.038017 0.509916 0.833273 0.164957 0.223383 1.380924 0.369861 0.037278 1.540399 0.470923 0.433092 -9.642099 0.410490 0.987683 -4.362370 7.917027 -1.871531 14.071528 14.062426 -3.424001 -66.158209 -7.410984 -64.242047 -9.143611 1.447559 12.039176 20.279542 -10.048945 3.515801 -1.807109 2.010256 10.767560 58.912391 2.081986 42.087783 65.389364 4.124483 -18.418068 -34.264323 -29.094851 -13.888453 11.303435 3.139325 1.503271 0.000000 0.326983 0.000000 10.767610 -1.399956 -2.813213 0.000000 -3.509230 0.000000 -8.279494 3.309030 0.674297 0.000000 -1.472483 0.000000 -12.919981 0.979687 -0.605150 0.000000 -4.155761 0.000000
176.789954 93.029645 282.872388 -6.166893 -0.521042 -0.227405 0.709296 -0.040421 0.542591 0.886038 0.168560 0.228942 1.497903 0.362939 0.043441 1.654494 0.456525 0.493285 -9.759914 0.371896 1.009719 -4.421076 8.007405 -1.929810 13.915829 13.943223 -3.471035 -66.153645 -7.383984 -64.367073 -8.950633 1.341484 12.083457 20.236609 -9.954336 3.505333 -1.087581 1.237594 11.143764 58.652582 2.040523 41.420555 63.023013 4.403650 -17.763197 -35.147194 -29.145852 -14.245301 11.410006 3.185494 1.512577 0.000000 0.332584 0.000000 10.844569 -1.434478 -2.789582 0.000000 -3.449359 0.000000 -8.050230 3.285718 0.682720 0.000000 -1.430113 0.000000 -12.954256 0.998372 -0.612810 0.000000 -4.110888 0.000000
176.801099 93.028247 282.849170 -6.346663 -0.556063 -0.252033 0.762779 -0.033135 0.581610 0.952183 0.174230 0.283833 1.614579 0.375261 0.087383 1.794450 0.433839 0.483186 -9.948660 0.336037 0.937605 -4.489414 7.982798 -1.844568 13.750135 13.822117 -3.524001 -66.083636 -7.391936 -64.418480 -8.770550 1.452485 12.037779 20.412937 -9.879425 3.616354 -0.564262 0.626783 11.468853 58.636354 1.659986 40.630896 60.617705 3.499348 -16.821281 -34.443021 -28.300805 -15.568600 11.512352 3.230979 1.545170 0.000000 0.320470 0.000000 10.919753 -1.435277 -2.818232 0.000000 -3.517293 0.000000 -7.855493 3.253532 0.708309 0.000000 -1.379148 0.000000 -12.971732 1.047658 -0.631384 0.000000 -4.137123 0.000000
176.827600 93.028638 282.837354 -6.489586 -0.612589 -0.245915 0.809364 -0.008781 0.614366 1.019189 0.197608 0.325171 1.705431 0.370054 0.139194 1.915565 0.415412 0.452058 -10.105975 0.228394 0.918476 -4.550963 7.941821 -1.824205 13.619344 13.793218 -3.588995 -66.280003 -7.267627 -64.375007 -8.659631 1.383387 12.149335 20.519823 -10.130335 3.491225 -0.076521 0.058263 11.769668 58.844395 1.408311 39.905727 57.662577 4.068098 -16.248072 -34.637102 -28.144699 -15.059709 11.539479 3.303855 1.532091 0.000000 0.320481 0.000000 11.041902 -1.444328 -2.801949 0.000000 -3.462217 0.000000 -7.681702 3.259384 0.684504 0.000000 -1.341529 0.000000 -12.980829 1.056179 -0.634366 0.000000 -4.101967 0.000000
176.848962 93.024420 282.823584 -6.656346 -0.638814 -0.232885 0.893107 0.030152 0.626898 1.115446 0.181354 0.361040 1.799977 0.344523 0.171232 2.014735 0.406557 0.458211 -10.298802 0.135794 0.922260 -4.644160 8.021515 -1.951602 13.498630 13.741438 -3.599869 -66.369433 -7.245017 -64.394748 -8.585292 1.178477 12.223920 20.562197 -10.001328 3.440194 0.479042 -0.603986 11.975750 58.897555 1.469449 39.477881 55.666051 3.000576 -15.898403 -35.064573 -26.965889 -15.364712 11.666988 3.354571 1.515771 0.000000 0.301022 0.000000 11.093352 -1.451244 -2.845880 0.000000 -3.492638 0.000000 -7.561838 3.230812 0.663009 0.000000 -1.301176 0.000000 -12.919686 1.067055 -0.659725 0.000000 -4.113906 0.000000
176.865454 93.027441 282.821289 -6.763255 -0.645726 -0.257548 0.962053 0.071376 0.699744 1.187710 0.121242 0.410452 1.842595 0.286147 0.167019 2.063452 0.418992 0.378242 -10.367672 0.107017 1.049723 -4.693736 8.060176 -2.090621 13.471845 13.723880 -3.562394 -66.279553 -7.265030 -64.367483 -8.471825 1.177308 12.177045 20.479493 -9.821031 3.795299 0.923126 -0.887856 12.262230 59.301217 1.253851 38.742847 53.065879 2.906873 -15.452063 -35.026619 -27.071600 -14.621749 11.764746 3.379868 1.531494 0.000000 0.277670 0.000000 11.105209 -1.442823 -2.748116 0.000000 -3.497119 0.000000 -7.429577 3.210879 0.677838 0.000000 -1.285233 0.000000 -12.941896 1.118797 -0.625217 0.000000 -4.138244 0.000000
176.877014 93.029077 282.813232 -6.849068 -0.650540 -0.251280 1.020294 0.045749 0.715645 1.244109 0.108710 0.433455 1.888907 0.261299 0.193104 2.112573 0.439908 0.347004 -10.430891 0.128591 1.096518 -4.724184 8.044704 -2.088700 13.416929 13.721638 -3.543863 -66.254563 -7.285674 -64.279441 -8.410585 1.094187 12.043451 20.458620 -9.930977 4.073829 1.472257 -1.151399 12.486507 59.418139 0.940901 38.169647 50.974092 2.242672 -15.071670 -34.907324 -26.534138 -13.470118 11.823469 3.386484 1.520536 0.000000 0.286028 0.000000 11.130940 -1.449073 -2.743059 0.000000 -3.498134 0.000000 -7.364121 3.204651 0.669292 0.000000 -1.304315 0.000000 -12.911478 1.159214 -0.633264 0.000000 -4.156900 0.000000
176.879639 93.031671 282.806519 -6.887295 -0.651830 -0.250180 1.029348 0.067578 0.720539 1.261815 0.035425 0.474406 1.967072 0.243056 0.219856 2.192779 0.488644 0.296225 -10.547508 0.090118 1.158103 -4.778254 7.996805 -2.115219 13.363497 13.677558 -3.521636 -66.096422 -7.350811 -64.243279 -8.372621 1.125510 12.033504 20.383121 -9.843228 4.046389 1.963305 -1.445538 12.719366 59.648080 1.038310 37.692393 49.211032 1.368431 -15.009677 -35.052389 -26.718471 -12.030632 11.844168 3.393086 1.522048 0.000000 0.282058 0.000000 11.146187 -1.467661 -2.800485 0.000000 -3.457957 0.000000 -7.298221 3.201763 0.663705 0.000000 -1.312290 0.000000 -12.907616 1.173044 -0.635042 0.000000 -4.128708 0.000000
176.885132 93.030457 282.797437 -6.915528 -0.659380 -0.252669 1.081326 0.009770 0.735272 1.303825 0.092259 0.495880 2.009412 0.276783 0.266905 2.252355 0.435517 0.303086 -10.704361 -0.022062 1.092611 -4.835316 7.983298 -2.075330 13.303872 13.600146 -3.516008 -66.015175 -7.332647 -64.312577 -8.391888 1.289591 12.117967 20.279293 -10.050423 3.945735 2.372642 -1.658978 12.801842 60.004161 1.348834 37.229559 47.870418 0.072695 -15.053387 -35.380482 -26.958036 -10.817813 11.853649 3.393875 1.515988 0.000000 0.281530 0.000000 11.180787 -1.455456 -2.762247 0.000000 -3.493537 0.000000 -7.261781 3.197368 0.668119 0.000000 -1.316744 0.000000 -12.923236 1.182590 -0.643833 0.000000 -4.127412 0.000000
